<svg version="1.0" xmlns="http://www.w3.org/2000/svg" xmlns:xlink="http://www.w3.org/1999/xlink" x="0px" y="0px" width="64px" height="64px" viewBox="0 0 64 64" enable-background="new 0 0 64 64" xml:space="preserve" style="height: 60px; width: 60px;" id="nectar-svg-animation-instance-1"><path fill="none" stroke="#000000" stroke-width="2" stroke-miterlimit="10" d="M3.7079999999999984,35A28.292,28.292 0,1,1 60.292,35A28.292,28.292 0,1,1 3.7079999999999984,35" style="stroke-dasharray: 178px, 180px; stroke-dashoffset: 0px;"></path>
<path fill="none" stroke="#000000" stroke-width="2" stroke-linejoin="bevel" stroke-miterlimit="10" d="M37,40L45,21L26,29L19,47Z" style="stroke-dasharray: 80px, 82px; stroke-dashoffset: 0px;"></path>
<path fill="none" stroke="#000000" stroke-width="2" stroke-miterlimit="10" d="M26,29L37,40" style="stroke-dasharray: 16px, 18px; stroke-dashoffset: 0px;"></path>
<path fill="none" stroke="#000000" stroke-width="2" stroke-miterlimit="10" d="M36.9,7C36.965,6.677,37,6.342,37,6c0-2.761-2.239-5-5-5s-5,2.239-5,5c0,0.342,0.035,0.677,0.1,1" style="stroke-dasharray: 18px, 20px; stroke-dashoffset: 0px;"></path>
<path fill="none" stroke="#000000" stroke-width="2" stroke-miterlimit="10" d="M32,7L32,12" style="stroke-dasharray: 5px, 7px; stroke-dashoffset: 0px;"></path>
<path fill="none" stroke="#000000" stroke-width="2" stroke-miterlimit="10" d="M32,58L32,63" style="stroke-dasharray: 5px, 7px; stroke-dashoffset: 0px;"></path>
<path fill="none" stroke="#000000" stroke-width="2" stroke-miterlimit="10" d="M60,35L55,35" style="stroke-dasharray: 5px, 7px; stroke-dashoffset: 0px;"></path>
<path fill="none" stroke="#000000" stroke-width="2" stroke-miterlimit="10" d="M9,35L4,35" style="stroke-dasharray: 5px, 7px; stroke-dashoffset: 0px;"></path>
</svg>